# xmcd
#
# Track frame offsets:
#	150
#	13829
#	26066
#	38127
#	50786
#	62099
#	72027
#	84721
#
# Disc length: 1311 seconds
#
# Revision: 1
# Processed by: cddbd v1.5.2PL0 Copyright (c) Steve Scherf et al.
# Submitted via: audiograbber 1.83.01
#
DISCID=6b051d08
DTITLE=Various Artist - Bluegrass Classics Disc 1 (Bluegrass Originals)
DYEAR=2008
DGENRE=Bluegrass
TTITLE0=Bill Monroe and His Blue Grass Boys - Blue Moon Of Kentucky
TTITLE1=The Bailey Brothers - John Henry
TTITLE2=Lester Flatt and Earl Scruggs - Foggy Mountain Breakdown
TTITLE3=Uncle Dave Macon - Cumberland Mountain Deer Race
TTITLE4=The Armstrong Twins - Three Miles South Of Cash In Arkansas
TTITLE5=The Delmore Brothers - The Cannon Ball
TTITLE6=The Coon Creek Girls - Banjo Pickin' Girl
TTITLE7=Brown's Ferry Four - Will The Circle Be Unbroken
EXTD=
EXTT0=
EXTT1=
EXTT2=
EXTT3=
EXTT4=
EXTT5=
EXTT6=
EXTT7=
PLAYORDER=
